<?xml version="1.0" ?><svg id="Layer_1" style="enable-background:new 0 0 595.3 595.3;" version="1.1" viewBox="0 0 595.3 595.3" xml:space="preserve" xmlns="http://www.w3.org/2000/svg" xmlns:xlink="http://www.w3.org/1999/xlink"><style type="text/css">
	.st0{fill:#FFFFFF;}
	.st1{fill:#EDBD44;}
	.st2{fill:#C5802A;}
	.st3{fill:#009444;}
	.st4{fill:#006838;}
	.st5{fill:#77AAB6;}
	.st6{fill:#167D88;}
	.st7{fill:#005A67;}
	.st8{fill:#6F2334;}
	.st9{fill:#460618;}
	.st10{fill:#961634;}
	.st11{fill:#008245;}
	.st12{fill:#35A0AD;}
	.st13{fill:#203A40;}
	.st14{fill:#27545D;}
</style><rect class="st0" height="595.3" width="595.3"/><g><g><g><path class="st5" d="M380.5,82H232.4c-44.7,0-81,36.3-81,81v308h211.6c44.7,0,81-36.3,81-81V145.4L380.5,82z"/></g><g><polygon class="st7" points="443.9,145.4 380.2,145.7 380.5,82    "/></g></g><g><rect class="st7" height="5" width="78.5" x="195.5" y="174"/></g><g><rect class="st7" height="5" width="204.2" x="195.5" y="207.7"/></g><g><rect class="st7" height="5" width="204.2" x="195.5" y="232.4"/></g><g><rect class="st7" height="5" width="204.2" x="195.5" y="257"/></g><g><rect class="st7" height="5" width="204.2" x="195.5" y="281.7"/></g><g><rect class="st7" height="5" width="128.1" x="195.5" y="306.4"/></g><g><rect class="st7" height="5" width="204.2" x="195.5" y="331.1"/></g><g><rect class="st7" height="5" width="204.2" x="195.5" y="355.8"/></g><g><rect class="st7" height="5" width="55.4" x="195.5" y="380.5"/></g><g><g><path class="st7" d="M255.6,473.9H136.2c-1.4,0-2.5-1.1-2.5-2.5s1.1-2.5,2.5-2.5h119.4c1.4,0,2.5,1.1,2.5,2.5     S257,473.9,255.6,473.9z"/></g><g><path class="st7" d="M312.1,473.9h-43.5c-1.4,0-2.5-1.1-2.5-2.5s1.1-2.5,2.5-2.5h43.5c1.4,0,2.5,1.1,2.5,2.5     S313.5,473.9,312.1,473.9z"/></g><g><path class="st7" d="M459.1,473.9h-34.8c-1.4,0-2.5-1.1-2.5-2.5s1.1-2.5,2.5-2.5h34.8c1.4,0,2.5,1.1,2.5,2.5     S460.5,473.9,459.1,473.9z"/></g><g><path class="st7" d="M412.5,473.9h-85c-1.4,0-2.5-1.1-2.5-2.5s1.1-2.5,2.5-2.5h85c1.4,0,2.5,1.1,2.5,2.5S413.9,473.9,412.5,473.9     z"/></g></g><g><polygon class="st10" points="420.6,513.3 392.6,495 364.7,513.3 364.7,439.9 420.6,439.9   "/></g><g><circle class="st1" cx="392.6" cy="419.7" r="43.4"/></g><g><path class="st2" d="M427.5,419.7c0,3.4-8,5.4-9,8.4c-1,3.1,4.2,9.5,2.3,12.1c-1.9,2.6-9.6-0.4-12.2,1.5    c-2.6,1.9-2.1,10.1-5.2,11.1c-3,1-7.4-5.9-10.8-5.9c-3.4,0-7.8,6.9-10.8,5.9c-3.1-1-2.6-9.2-5.2-11.1c-2.6-1.9-10.3,1.1-12.2-1.5    c-1.9-2.6,3.3-9,2.3-12.1c-1-3-9-5.1-9-8.4c0-3.4,8-5.4,9-8.4c1-3.1-4.2-9.5-2.3-12.1c1.9-2.6,9.6,0.4,12.2-1.5    c2.6-1.9,2.1-10.1,5.2-11.1c3-1,7.4,5.9,10.8,5.9c3.4,0,7.8-6.9,10.8-5.9c3.1,1,2.6,9.2,5.2,11.1c2.6,1.9,10.3-1.1,12.2,1.5    c1.9,2.6-3.3,9-2.3,12.1C419.5,414.3,427.5,416.3,427.5,419.7z"/></g><g><path class="st6" d="M432.7,268c-1.4,0-2.5-1.1-2.5-2.5v-92.8c0-1.4,1.1-2.5,2.5-2.5c1.4,0,2.5,1.1,2.5,2.5v92.8    C435.2,266.9,434.1,268,432.7,268z"/></g><g><path class="st6" d="M432.7,305.3c-1.4,0-2.5-1.1-2.5-2.5v-23.5c0-1.4,1.1-2.5,2.5-2.5c1.4,0,2.5,1.1,2.5,2.5v23.5    C435.2,304.1,434.1,305.3,432.7,305.3z"/></g><g><path class="st6" d="M432.7,371.8c-1.4,0-2.5-1.1-2.5-2.5v-53.8c0-1.4,1.1-2.5,2.5-2.5c1.4,0,2.5,1.1,2.5,2.5v53.8    C435.2,370.7,434.1,371.8,432.7,371.8z"/></g><g><path class="st6" d="M356.3,462.6H274c-1.4,0-2.5-1.1-2.5-2.5c0-1.4,1.1-2.5,2.5-2.5h82.3c1.4,0,2.5,1.1,2.5,2.5    C358.8,461.5,357.7,462.6,356.3,462.6z"/></g><g><path class="st6" d="M262.7,462.6h-32.3c-1.4,0-2.5-1.1-2.5-2.5c0-1.4,1.1-2.5,2.5-2.5h32.3c1.4,0,2.5,1.1,2.5,2.5    C265.2,461.5,264.1,462.6,262.7,462.6z"/></g><g><path class="st8" d="M413.2,497.7c-1.4,0-2.5-1.1-2.5-2.5v-26.9c0-1.4,1.1-2.5,2.5-2.5c1.4,0,2.5,1.1,2.5,2.5v26.9    C415.7,496.6,414.6,497.7,413.2,497.7z"/></g></g></svg>