<svg width="22.000000" height="22.000000" viewBox="0 0 22 22" fill="none" xmlns="http://www.w3.org/2000/svg" xmlns:xlink="http://www.w3.org/1999/xlink">
	<desc>
			Created with Pixso.
	</desc>
	<defs/>
	<g opacity="0.000000">
		<rect id="guard" width="22.000000" height="22.000000" fill="#FFFFFF" fill-opacity="1.000000"/>
	</g>
	<path id="icon" d="M12.79 12.26C11.36 13.69 9.03 13.69 7.6 12.26C6.17 10.83 6.17 8.51 7.6 7.07C9.03 5.64 11.36 5.64 12.79 7.07C14.22 8.51 14.22 10.83 12.79 12.26ZM13.23 13.64C11.27 15.14 8.45 14.99 6.66 13.2C4.71 11.25 4.71 8.08 6.66 6.13C8.61 4.18 11.78 4.18 13.73 6.13C15.52 7.92 15.67 10.74 14.17 12.7L17.74 16.27L16.79 17.21L13.23 13.64Z" fill="#FFFFFF" fill-opacity="1.000000" fill-rule="evenodd"/>
</svg>
